<?xml version="1.0" encoding="UTF-8"?>
<svg width="182px" height="15px" viewBox="0 0 182 15" version="1.1" xmlns="http://www.w3.org/2000/svg" xmlns:xlink="http://www.w3.org/1999/xlink">
    <!-- Generator: Sketch 47.1 (45422) - http://www.bohemiancoding.com/sketch -->
    <title>Page 1</title>
    <desc>Created with Sketch.</desc>
    <defs>
        <polygon id="path-1" points="6.41490411 0.822268493 6.41490411 7.57470685 0.627287671 7.57470685 0.627287671 0.822268493 6.41490411 0.822268493"></polygon>
        <polygon id="path-3" points="0.000175342466 0.312109589 9.0386411 0.312109589 9.0386411 14.898527 0.000175342466 14.898527"></polygon>
        <polygon id="path-5" points="0.495956164 0.312109589 10.7256132 0.312109589 10.7256132 5.13516712 0.495956164 5.13516712 0.495956164 0.312109589"></polygon>
        <polygon id="path-7" points="0.371287671 0.312109589 11.1022466 0.312109589 11.1022466 14.8985863 0.371287671 14.8985863"></polygon>
        <polygon id="path-9" points="0.333560888 0.312109589 14.0400745 0.312109589 14.0400745 14.8992 0.333560888 14.8992"></polygon>
        <polygon id="path-11" points="0.598005479 0.312109589 11.9128548 0.312109589 11.9128548 14.898937 0.598005479 14.898937 0.598005479 0.312109589"></polygon>
        <polygon id="path-13" points="0.480158002 0.312109589 12.4853653 0.312109589 12.4853653 14.8984986 0.480158002 14.8984986"></polygon>
        <polygon id="path-15" points="9.74632329 0.312109589 0.7232 0.312109589 0.7232 14.9036712 9.74632329 14.9036712 9.74632329 0.312109589"></polygon>
    </defs>
    <g id="Current-Account---New-UI-Copy" stroke="none" stroke-width="1" fill="none" fill-rule="evenodd">
        <g id="Conta/Extrato/Cards/Frank" transform="translate(-748.000000, -142.000000)">
            <g id="Group-2" transform="translate(725.000000, 101.000000)">
                <g id="Page-1" transform="translate(23.671233, 40.328767)">
                    <path d="M95.4667836,8.27037808 C95.4667836,6.75629589 94.4436603,5.53152877 92.9392219,5.53152877 L91.0104548,5.53152877 L91.0104548,11.0101041 L92.9392219,11.0101041 C94.4436603,11.0101041 95.4667836,9.78533699 95.4667836,8.27037808 M96.1225644,8.27037808 C96.1225644,10.1325151 94.8004822,11.6465973 92.9392219,11.6465973 L90.3345096,11.6465973 L90.3345096,4.8941589 L92.9392219,4.8941589 C94.8004822,4.8941589 96.1225644,6.40911781 96.1225644,8.27037808" id="Fill-1" fill="#FFFFFF"></path>
                    <path d="M105.900888,8.27037808 C105.900888,6.69843288 104.685764,5.43509041 103.084888,5.43509041 C101.484011,5.43509041 100.268011,6.69843288 100.268011,8.27037808 C100.268011,9.8432 101.484011,11.1056658 103.084888,11.1056658 C104.685764,11.1056658 105.900888,9.8432 105.900888,8.27037808 M99.5938192,8.27037808 C99.5938192,6.34161096 101.117545,4.77930959 103.084888,4.77930959 C105.05223,4.77930959 106.576833,6.34161096 106.576833,8.27037808 C106.576833,10.1991452 105.05223,11.7614466 103.084888,11.7614466 C101.117545,11.7614466 99.5938192,10.1991452 99.5938192,8.27037808" id="Fill-3" fill="#FFFFFF"></path>
                    <polygon id="Fill-5" fill="#FFFFFF" points="114.194499 11.0101041 114.194499 11.6465973 110.432526 11.6465973 110.432526 4.8941589 111.107595 4.8941589 111.107595 11.0101041"></polygon>
                    <polygon id="Fill-7" fill="#FFFFFF" points="121.620077 11.0101041 121.620077 11.6465973 117.858104 11.6465973 117.858104 4.8941589 118.533173 4.8941589 118.533173 11.0101041"></polygon>
                    <path d="M129.102904,9.35092603 L127.743123,5.73361096 L126.382466,9.35092603 L129.102904,9.35092603 Z M129.344,9.98829589 L126.142247,9.98829589 L125.514521,11.6461589 L124.801753,11.6461589 L127.395945,4.89459726 L128.090301,4.89459726 L130.68537,11.6461589 L129.970849,11.6461589 L129.344,9.98829589 Z" id="Fill-9" fill="#FFFFFF"></path>
                    <path d="M134.92743,8.30895342 L136.953512,8.30895342 C137.695211,8.30895342 138.303649,7.68210411 138.303649,6.9202411 C138.303649,6.14873425 137.695211,5.53152877 136.953512,5.53152877 L134.92743,5.53152877 L134.92743,8.30895342 Z M136.817622,8.94632329 L134.92743,8.94632329 L134.92743,11.6465973 L134.251485,11.6465973 L134.251485,4.8941589 L136.953512,4.8941589 C138.071321,4.8941589 138.977841,5.80155616 138.977841,6.9202411 C138.977841,7.83640548 138.360636,8.61843288 137.521622,8.85865205 L139.171595,11.6465973 L138.399211,11.6465973 L136.817622,8.94632329 Z" id="Fill-11" fill="#FFFFFF"></path>
                    <path d="M147.560942,8.27037808 C147.560942,6.34161096 149.026805,4.77930959 151.10023,4.77930959 C152.354805,4.77930959 153.46297,5.43509041 154.023189,6.43804932 L153.424395,6.7852274 C153.010586,5.97514521 152.112833,5.43509041 151.10023,5.43509041 C149.393271,5.43509041 148.236011,6.69843288 148.236011,8.27037808 C148.236011,9.8432 149.393271,11.1056658 151.10023,11.1056658 C152.112833,11.1056658 153.010586,10.565611 153.424395,9.75552877 L154.023189,10.093063 C153.472614,11.0968986 152.364449,11.7614466 151.10023,11.7614466 C149.026805,11.7614466 147.560942,10.1991452 147.560942,8.27037808" id="Fill-13" fill="#FFFFFF"></path>
                    <path d="M161.361447,9.35092603 L160.001666,5.73361096 L158.641008,9.35092603 L161.361447,9.35092603 Z M161.602542,9.98829589 L158.400789,9.98829589 L157.773063,11.6461589 L157.060296,11.6461589 L159.654488,4.89459726 L160.348844,4.89459726 L162.943912,11.6461589 L162.229392,11.6461589 L161.602542,9.98829589 Z" id="Fill-15" fill="#FFFFFF"></path>
                    <path d="M167.185973,8.30895342 L169.212055,8.30895342 C169.953753,8.30895342 170.562192,7.68210411 170.562192,6.9202411 C170.562192,6.14873425 169.953753,5.53152877 169.212055,5.53152877 L167.185973,5.53152877 L167.185973,8.30895342 Z M169.076164,8.94632329 L167.185973,8.94632329 L167.185973,11.6465973 L166.510027,11.6465973 L166.510027,4.8941589 L169.212055,4.8941589 C170.329863,4.8941589 171.236384,5.80155616 171.236384,6.9202411 C171.236384,7.83640548 170.619178,8.61843288 169.780164,8.85865205 L171.430137,11.6465973 L170.657753,11.6465973 L169.076164,8.94632329 Z" id="Fill-17" fill="#FFFFFF"></path>
                    <g id="Group-21" transform="translate(174.465753, 4.071890)">
                        <mask id="mask-2" fill="white">
                            <use xlink:href="#path-1"></use>
                        </mask>
                        <g id="Clip-20"></g>
                        <path d="M5.75956164,4.19848767 C5.75956164,2.68440548 4.73643836,1.45963836 3.232,1.45963836 L1.30323288,1.45963836 L1.30323288,6.9382137 L3.232,6.9382137 C4.73643836,6.9382137 5.75956164,5.71344658 5.75956164,4.19848767 M6.41534247,4.19848767 C6.41534247,6.06062466 5.09326027,7.57470685 3.232,7.57470685 L0.627287671,7.57470685 L0.627287671,0.822268493 L3.232,0.822268493 C5.09326027,0.822268493 6.41534247,2.3372274 6.41534247,4.19848767" id="Fill-19" fill="#FFFFFF" mask="url(#mask-2)"></path>
                    </g>
                    <g id="Group-24" transform="translate(0.000000, 0.565041)">
                        <mask id="mask-4" fill="white">
                            <use xlink:href="#path-3"></use>
                        </mask>
                        <g id="Clip-23"></g>
                        <path d="M0.201819178,0.339813699 L8.9926137,7.50956712 C9.05398356,7.55866301 9.05398356,7.65159452 8.9926137,7.70069041 L0.201819178,14.8704438 C0.121161644,14.9361973 0.000175342466,14.879211 0.000175342466,14.7748822 L0.000175342466,0.435375342 C0.000175342466,0.331046575 0.121161644,0.274060274 0.201819178,0.339813699" id="Fill-22" fill="#FFFFFF" mask="url(#mask-4)"></path>
                    </g>
                    <g id="Group-27" transform="translate(0.876712, 0.565041)">
                        <mask id="mask-6" fill="white">
                            <use xlink:href="#path-5"></use>
                        </mask>
                        <g id="Clip-26"></g>
                        <path d="M10.6123397,0.31149589 L0.495956164,0.31149589 L6.40938082,5.13516712 L10.6956274,0.501742466 C10.7622575,0.428975342 10.7105315,0.31149589 10.6123397,0.31149589" id="Fill-25" fill="#FFFFFF" mask="url(#mask-6)"></path>
                    </g>
                    <path d="M11.4890521,15.4638904 L1.37266849,15.4638904 L7.28609315,10.6410959 L11.5723397,15.2745205 C11.6389699,15.346411 11.5872438,15.4638904 11.4890521,15.4638904" id="Fill-28" fill="#FFFFFF"></path>
                    <g id="Group-32" transform="translate(25.424658, 0.565041)">
                        <mask id="mask-8" fill="white">
                            <use xlink:href="#path-7"></use>
                        </mask>
                        <g id="Clip-31"></g>
                        <path d="M8.24328767,10.3449425 C8.18717808,9.45069589 7.41041096,8.77212055 6.51528767,8.77212055 L3.2460274,8.77212055 L3.2460274,12.2105863 L6.56,12.2105863 C7.58312329,12.2105863 8.31079452,11.4145315 8.24328767,10.3449425 M3.2460274,3.09803836 L3.2460274,6.08850411 C3.2460274,6.15513425 3.30038356,6.2086137 3.36789041,6.2086137 L6.12252055,6.2086137 C7.07024658,6.2086137 7.7619726,5.43886027 7.67780822,4.44291507 C7.60942466,3.61792877 6.88613699,2.99984658 6.05764384,2.99984658 L3.34509589,2.99984658 C3.29073973,2.99984658 3.2460274,3.04368219 3.2460274,3.09803836 M11.1022466,10.6684493 C11.1022466,13.1697096 9.08142466,14.8985863 6.56,14.8985863 L0.488767123,14.8985863 C0.423890411,14.8985863 0.371287671,14.8459836 0.371287671,14.7811068 L0.371287671,0.427572603 C0.371287671,0.363572603 0.423013699,0.311846575 0.487013699,0.311846575 L6.12252055,0.311846575 C8.58082192,0.311846575 10.5613151,1.97847671 10.5613151,4.4166137 C10.5613151,5.66768219 10.0396712,6.64696986 9.18575342,7.33431233 C10.3526575,8.00149041 11.1022466,9.14735342 11.1022466,10.6684493" id="Fill-30" fill="#FFFFFF" mask="url(#mask-8)"></path>
                    </g>
                    <g id="Group-35" transform="translate(36.821918, 0.565041)">
                        <mask id="mask-10" fill="white">
                            <use xlink:href="#path-9"></use>
                        </mask>
                        <g id="Clip-34"></g>
                        <path d="M9.13928767,9.44166575 L7.28942466,3.93152877 C7.2569863,3.83333699 7.11671233,3.83333699 7.08339726,3.93152877 L5.23353425,9.44166575 C5.21073973,9.51180274 5.26334247,9.58456986 5.3369863,9.58456986 L9.03583562,9.58456986 C9.11035616,9.58456986 9.1629589,9.51180274 9.13928767,9.44166575 M10.0046027,12.2725699 L4.34717808,12.2725699 C4.30071233,12.2725699 4.25950685,12.3032548 4.24460274,12.3470904 L3.41873973,14.8246795 C3.40383562,14.8685151 3.36263014,14.8992 3.31528767,14.8992 L0.44230137,14.8992 C0.36690411,14.8992 0.315178082,14.8255562 0.339726027,14.7545425 L5.36942466,0.384350685 C5.38432877,0.340515068 5.42553425,0.311583562 5.47112329,0.311583562 L8.88153425,0.311583562 C8.92712329,0.311583562 8.96832877,0.340515068 8.98323288,0.384350685 L14.0339726,14.7545425 C14.0585205,14.8255562 14.0059178,14.8992 13.9313973,14.8992 L11.0364932,14.8992 C10.9900274,14.8992 10.9479452,14.8685151 10.9339178,14.8246795 L10.1080548,12.3470904 C10.0931507,12.3032548 10.0519452,12.2725699 10.0046027,12.2725699" id="Fill-33" fill="#FFFFFF" mask="url(#mask-10)"></path>
                    </g>
                    <g id="Group-38" transform="translate(51.726027, 0.565041)">
                        <mask id="mask-12" fill="white">
                            <use xlink:href="#path-11"></use>
                        </mask>
                        <g id="Clip-37"></g>
                        <path d="M11.9128548,0.4288 L11.9128548,14.7814575 C11.9128548,14.8463342 11.8602521,14.898937 11.7953753,14.898937 L9.78595068,14.898937 C9.74737534,14.898937 9.71143014,14.8796493 9.68951233,14.8489644 L3.47362192,5.98014247 L3.47362192,14.7814575 C3.47362192,14.8463342 3.42014247,14.898937 3.35614247,14.898937 L0.715484932,14.898937 C0.649731507,14.898937 0.598005479,14.8463342 0.598005479,14.7814575 L0.598005479,0.4288 C0.598005479,0.3648 0.649731507,0.311320548 0.715484932,0.311320548 L2.72490959,0.311320548 C2.76260822,0.311320548 2.79855342,0.330608219 2.82047123,0.362169863 L9.03723836,9.20995068 L9.03723836,0.4288 C9.03723836,0.3648 9.0898411,0.311320548 9.15471781,0.311320548 L11.7953753,0.311320548 C11.8602521,0.311320548 11.9128548,0.3648 11.9128548,0.4288" id="Fill-36" fill="#FFFFFF" mask="url(#mask-12)"></path>
                    </g>
                    <g id="Group-41" transform="translate(64.876712, 0.565041)">
                        <mask id="mask-14" fill="white">
                            <use xlink:href="#path-13"></use>
                        </mask>
                        <g id="Clip-40"></g>
                        <path d="M9.27114521,14.8397589 L6.57788493,10.3238137 C6.53054247,10.2440329 6.41569315,10.2440329 6.36747397,10.3238137 L3.6742137,14.8397589 C3.65229589,14.8765808 3.61196712,14.8984986 3.56900822,14.8984986 L0.602213699,14.8984986 C0.507528767,14.8984986 0.448789041,14.7959233 0.497884932,14.714389 L4.81043288,7.4797589 C4.8332274,7.44206027 4.8332274,7.3938411 4.81043288,7.35526575 L0.726706849,0.496745205 C0.678487671,0.415210959 0.737227397,0.311758904 0.831912329,0.311758904 L3.79870685,0.311758904 C3.84166575,0.311758904 3.88111781,0.334553425 3.90303562,0.371375342 L6.36747397,4.51208767 C6.41569315,4.59186849 6.53054247,4.59186849 6.57788493,4.51208767 L9.04232329,0.371375342 C9.0642411,0.334553425 9.10369315,0.311758904 9.14665205,0.311758904 L12.1134466,0.311758904 C12.2081315,0.311758904 12.2668712,0.415210959 12.2177753,0.496745205 L8.13580274,7.33422466 C8.11213151,7.3728 8.11213151,7.42101918 8.13580274,7.45959452 L12.4676384,14.714389 C12.5167342,14.7959233 12.4579945,14.8984986 12.3633096,14.8984986 L9.37635068,14.8984986 C9.33339178,14.8984986 9.29306301,14.8765808 9.27114521,14.8397589" id="Fill-39" fill="#FFFFFF" mask="url(#mask-14)"></path>
                    </g>
                    <g id="Group-44" transform="translate(14.027397, 0.565041)">
                        <mask id="mask-16" fill="white">
                            <use xlink:href="#path-15"></use>
                        </mask>
                        <g id="Clip-43"></g>
                        <path d="M4.26511781,12.140274 C3.88988493,12.0920548 3.59881644,11.7746849 3.59881644,11.3863014 L3.59881644,8.98849315 C3.59881644,8.92712329 3.64878904,8.87627397 3.71191233,8.87627397 L9.00900822,8.87627397 C9.07037808,8.87627397 9.1212274,8.82630137 9.1212274,8.76317808 L9.1212274,6.27945205 C9.1212274,6.21808219 9.07037808,6.16810959 9.00900822,6.16810959 L3.71191233,6.16810959 C3.64878904,6.16810959 3.59881644,6.11726027 3.59881644,6.0550137 L3.59881644,3.1750137 C3.59881644,3.11276712 3.64878904,3.06279452 3.71191233,3.06279452 L9.52977534,3.06279452 C9.59202192,3.06279452 9.64199452,3.01194521 9.64199452,2.95057534 L9.64199452,0.424767123 C9.64199452,0.361643836 9.59202192,0.311671233 9.52977534,0.311671233 L0.835419178,0.311671233 C0.774049315,0.311671233 0.7232,0.361643836 0.7232,0.424767123 L0.7232,9.21205479 L0.7232,12.1779726 C0.7232,13.6841644 1.94358356,14.9036712 3.44889863,14.9036712 L9.74632329,14.9036712 L9.74632329,12.140274 L4.26511781,12.140274 Z" id="Fill-42" fill="#FFFFFF" mask="url(#mask-16)"></path>
                    </g>
                </g>
            </g>
        </g>
    </g>
</svg>