<?xml version="1.0" encoding="UTF-8" standalone="no"?>
<svg width="32px" height="32px" viewBox="0 0 32 32" version="1.1" xmlns="http://www.w3.org/2000/svg" xmlns:xlink="http://www.w3.org/1999/xlink">
    <!-- Generator: Sketch 47 (45396) - http://www.bohemiancoding.com/sketch -->
    <title>Group 5</title>
    <desc>Created with Sketch.</desc>
    <defs></defs>
    <g id="Current-Account---New-UI-Copy" stroke="none" stroke-width="1" fill="none" fill-rule="evenodd">
        <g id="Conta/Extrato/Cards/Frank" transform="translate(-772.000000, -310.000000)">
            <g id="Group-4" transform="translate(725.000000, 101.000000)">
                <g id="Group-5" transform="translate(47.000000, 209.000000)">
                    <rect id="Rectangle-6" fill="#FFFFFF" x="0" y="0" width="32" height="32" rx="16"></rect>
                    <path d="M12.7640215,9.00104372 C12.6550959,9.01156068 12.5513987,9.05245999 12.4645487,9.11935957 L7.23611873,12.9083882 C6.97789239,13.0994464 6.92299387,13.4646188 7.1135411,13.7237451 C7.14810683,13.7704872 7.18935333,13.8119707 7.23611873,13.846443 L12.4645487,17.6354716 C12.6975043,17.8569122 13.0649467,17.8472716 13.2859931,17.6138534 C13.5067491,17.3804353 13.4968731,17.0111729 13.2644985,16.7897324 C13.2261567,16.7532152 13.1828769,16.7219564 13.1361115,16.6974168 L9.36002317,13.965051 L19.4811017,13.965051 C20.6531414,13.965051 21.7522736,14.3159086 22.5400237,14.9849044 C23.3277738,15.6539002 23.8381267,16.6296408 23.8381267,18.045049 C23.8381267,19.479154 23.3879008,20.3634554 22.6852579,20.9506526 C21.982615,21.5381419 20.9653949,21.8340776 19.77157,21.8340776 C19.450893,21.8294034 19.1865668,22.0864848 19.1819193,22.4084207 C19.1769814,22.7303567 19.4331744,22.9950337 19.7538515,23 C19.7599513,23 19.7654702,23 19.77157,23 C21.1524565,23 22.4523023,22.6605358 23.4297282,21.8431339 C24.4071541,21.0263163 25,19.7374039 25,18.045049 C25,16.3348737 24.3310514,14.9735111 23.2934986,14.0924231 C22.2559457,13.2113352 20.8837733,12.7988365 19.4811017,12.7988365 L9.36002317,12.7988365 L13.1361115,10.0577065 C13.397533,9.87073826 13.4582409,9.50644229 13.2717602,9.24439459 C13.1555729,9.08079736 12.9635733,8.98906606 12.7640215,9.00104372" id="Page-1" fill="#2ECC71"></path>
                </g>
            </g>
        </g>
    </g>
</svg>