<?xml version="1.0" encoding="UTF-8" standalone="no"?>
<svg width="64px" height="50px" viewBox="0 0 64 50" version="1.1" xmlns="http://www.w3.org/2000/svg" xmlns:xlink="http://www.w3.org/1999/xlink">
    <!-- Generator: Sketch 47 (45396) - http://www.bohemiancoding.com/sketch -->
    <title>Group</title>
    <desc>Created with Sketch.</desc>
    <defs>
        <polygon id="path-1" points="0.271681686 1.10426714 1.38467507 1.10426714 1.38467507 0.0440602588 0.271681686 0.0440602588"></polygon>
    </defs>
    <g id="Platform" stroke="none" stroke-width="1" fill="none" fill-rule="evenodd">
        <g id="Cards" transform="translate(-778.000000, -1852.000000)">
            <g id="Group" transform="translate(778.000000, 1852.000000)">
                <g id="Page-1">
                    <path d="M10.9607589,44.2732719 C10.778228,44.0899636 10.5600813,43.9486174 10.3085447,43.8481291 C10.0570082,43.7465365 9.77987289,43.6957402 9.48159066,43.6957402 C9.32243261,43.6957402 9.15770959,43.7089914 8.9874216,43.7365981 C8.81602062,43.7642048 8.64907161,43.8116883 8.48434859,43.8801528 C8.32073856,43.9486174 8.16491949,44.0435844 8.01577837,44.1639495 C7.86886324,44.2854189 7.73975601,44.4378077 7.63068266,44.6222203 C7.4548297,44.3340066 7.21664912,44.1076319 6.91391492,43.9430961 C6.6134067,43.7785603 6.26837875,43.6957402 5.88217005,43.6957402 C5.75083683,43.6957402 5.61616463,43.7078872 5.47704046,43.7310768 C5.33680329,43.7542664 5.19879211,43.7951243 5.06189392,43.8536504 C4.92388274,43.9110723 4.79366252,43.9894753 4.66789426,44.0888593 C4.54212601,44.1882434 4.42971368,44.3141298 4.32731829,44.4654144 L4.32731829,43.8315651 L3.22768082,43.8315651 L3.22768082,49.0227249 L4.33733523,49.0227249 L4.33733523,46.1450047 C4.33733523,45.9252556 4.37295102,45.728696 4.44418259,45.5575346 C4.51430118,45.3852689 4.60779262,45.2417142 4.72576992,45.1257662 C4.84486021,45.0109224 4.98287139,44.9236853 5.14091645,44.8640548 C5.30007451,44.8044244 5.46813651,44.7746092 5.64955443,44.7746092 C6.02240722,44.7746092 6.3117855,44.8916615 6.51880227,45.1257662 C6.72359305,45.3609751 6.82710143,45.6977765 6.82710143,46.1350663 L6.82710143,49.0227249 L7.93786883,49.0227249 L7.93786883,46.1450047 C7.93786883,45.9252556 7.97237163,45.728696 8.04360321,45.5575346 C8.1126088,45.3852689 8.20721323,45.2417142 8.32630353,45.1257662 C8.44316783,45.0109224 8.58229201,44.9236853 8.74145006,44.8640548 C8.89949512,44.8044244 9.06867012,44.7746092 9.24897504,44.7746092 C9.62182783,44.7746092 9.9123191,44.8916615 10.1182229,45.1257662 C10.3241267,45.3609751 10.427635,45.6977765 10.427635,46.1350663 L10.427635,49.0227249 L11.5372894,49.0227249 L11.5372894,45.7607198 C11.5372894,45.4570463 11.4872047,45.178771 11.3870353,44.9258938 C11.2857529,44.6730166 11.1444028,44.455476 10.9607589,44.2732719" id="Fill-1" fill="#FFFFFF"></path>
                    <path d="M16.7713634,47.0883801 C16.6956799,47.290461 16.5877195,47.4660395 16.4485954,47.6140113 C16.3105842,47.7619831 16.1458612,47.8790354 15.9522003,47.9629597 C15.7596525,48.0479883 15.5437317,48.0910547 15.3077771,48.0910547 C15.0606926,48.0910547 14.8392069,48.046884 14.6444331,47.9585426 C14.4485462,47.8702013 14.2849362,47.7509404 14.150264,47.5996558 C14.0144788,47.4505798 13.9109704,47.273897 13.8386259,47.0718161 C13.7662813,46.8697353 13.7295525,46.6544032 13.7295525,46.4269241 C13.7295525,46.1994451 13.7662813,45.984113 13.8386259,45.7820321 C13.9109704,45.5799512 14.0144788,45.4043728 14.150264,45.2541924 C14.2849362,45.1040121 14.4485462,44.9847512 14.6444331,44.8964099 C14.8392069,44.8080685 15.0606926,44.7638978 15.3077771,44.7638978 C15.5437317,44.7638978 15.7596525,44.80586 15.9522003,44.8908885 C16.1458612,44.9759171 16.3105842,45.0918652 16.4485954,45.2409412 C16.5877195,45.3878088 16.6956799,45.5633872 16.7713634,45.7654681 C16.847047,45.9686533 16.8871148,46.1884024 16.8871148,46.4269241 C16.8871148,46.6654458 16.847047,46.8862993 16.7713634,47.0883801 L16.7713634,47.0883801 Z M16.8147702,44.4602244 C16.6333523,44.2283283 16.4074146,44.0439156 16.1380702,43.904778 C15.8676128,43.7656403 15.5459577,43.6960715 15.171992,43.6960715 C14.8024781,43.6960715 14.4607892,43.7634318 14.1446991,43.8992567 C13.8274959,44.0339772 13.5503606,44.2239112 13.314406,44.4657457 C13.0773384,44.7075802 12.8914685,44.9957939 12.7579093,45.3292826 C12.6221241,45.6638755 12.5553445,46.0304922 12.5553445,46.4269241 C12.5553445,46.8244603 12.6221241,47.1899727 12.7579093,47.5245657 C12.8914685,47.8591586 13.0773384,48.1462681 13.314406,48.3881026 C13.5503606,48.6299371 13.8274959,48.819871 14.1446991,48.9545916 C14.4607892,49.0904165 14.8024781,49.158881 15.171992,49.158881 C15.5459577,49.158881 15.8676128,49.0893122 16.1380702,48.9523831 C16.4074146,48.8143497 16.6333523,48.6299371 16.8147702,48.3991452 L16.8147702,49.0219519 L17.9555884,49.0219519 L17.9555884,43.8318964 L16.8147702,43.8318964 L16.8147702,44.4602244 Z" id="Fill-3" fill="#FFFFFF"></path>
                    <path d="M23.2036861,46.4187526 C22.883144,46.1713967 22.4379467,46.0057566 21.8658681,45.9229366 L21.3249533,45.8423251 C21.20475,45.8235526 21.0923377,45.8025715 20.9866033,45.7793819 C20.8808689,45.7561923 20.7896035,45.7241685 20.7139199,45.6844149 C20.6360104,45.6446613 20.5759087,45.593865 20.530276,45.5331303 C20.4846433,45.4712913 20.4612704,45.3962012 20.4612704,45.3056513 C20.4612704,45.1212387 20.5480839,44.9721626 20.7217109,44.8584231 C20.8942248,44.7446836 21.1379704,44.6872617 21.4507215,44.6872617 C21.6143316,44.6872617 21.7757156,44.7016172 21.9337607,44.7314324 C22.0918057,44.7601433 22.2431728,44.7954799 22.384523,44.8396505 C22.5269861,44.882717 22.6560934,44.9302005 22.7718447,44.9832053 C22.888709,45.0351058 22.9877654,45.0847978 23.0667879,45.1322813 L23.558731,44.2488676 C23.2849346,44.0754977 22.9666185,43.9407771 22.6026697,43.8447059 C22.2387209,43.7497389 21.8502862,43.7011511 21.4395916,43.7011511 C21.1045806,43.7011511 20.8040724,43.7398005 20.538067,43.8182034 C20.2720615,43.8955021 20.0461239,44.0059289 19.858028,44.1483793 C19.6710451,44.2908298 19.526356,44.465304 19.4261866,44.6706977 C19.3271302,44.8771956 19.2770455,45.1079875 19.2770455,45.3652817 C19.2770455,45.7837989 19.4261866,46.122809 19.7278078,46.3812075 C20.027203,46.639606 20.4690614,46.8085589 21.0511569,46.8880661 L21.5987497,46.9587392 C21.9115008,47.0018056 22.1407774,47.0713744 22.2865796,47.1663414 C22.4323817,47.2624126 22.5047263,47.3849863 22.5047263,47.5329581 C22.5047263,47.7284134 22.4045569,47.8819065 22.2042181,47.995646 C22.0038793,48.1093855 21.70671,48.1668074 21.3138234,48.1668074 C21.0990156,48.1668074 20.9075808,48.152452 20.7372928,48.1226367 C20.5681178,48.0939258 20.4134117,48.0552765 20.2731745,48.0066887 C20.1329374,47.9581009 20.0082821,47.9017833 19.8958698,47.8388401 C19.7856834,47.7758969 19.683288,47.7074323 19.5875706,47.6356549 L19.0577858,48.4870449 C19.2469946,48.6272868 19.4462205,48.7410263 19.6543502,48.8282634 C19.861367,48.9143963 20.0650448,48.9817566 20.2653836,49.0303443 C20.4657224,49.0800364 20.6549313,49.1120601 20.8330102,49.1286241 C21.0110892,49.1451881 21.1680212,49.152918 21.3026934,49.152918 C21.6777722,49.152918 22.0138962,49.1109558 22.3099524,49.0281358 C22.6071217,48.9453158 22.8564322,48.8282634 23.058997,48.6780831 C23.2615618,48.5290071 23.4151549,48.3501158 23.5231152,48.1425136 C23.6310756,47.9349113 23.6844993,47.706328 23.6844993,47.4567637 C23.6844993,47.0128483 23.5242282,46.6661084 23.2036861,46.4187526" id="Fill-5" fill="#FFFFFF"></path>
                    <path d="M30.6989175,45.9824566 C30.7278553,45.7947312 30.779053,45.6224655 30.8525106,45.4645553 C30.9248551,45.3077494 31.0183466,45.1730288 31.1340979,45.0592893 C31.2476232,44.9455498 31.3845214,44.8572084 31.5436795,44.7953694 C31.7006115,44.7346347 31.8820295,44.7037153 32.0868202,44.7037153 C32.4507691,44.7037153 32.7479383,44.8152462 32.977215,45.0394125 C33.2064916,45.2635787 33.3522937,45.5782948 33.4135084,45.9824566 L30.6989175,45.9824566 Z M33.8920955,44.4519424 C33.6750618,44.2112121 33.4146214,44.0256952 33.1107742,43.8931832 C32.806927,43.7617754 32.4730289,43.6955194 32.1090801,43.6955194 C31.7228714,43.6955194 31.3711655,43.7617754 31.0517364,43.8931832 C30.7323073,44.0256952 30.4585109,44.2112121 30.2292343,44.4519424 C29.9999576,44.6926726 29.8218787,44.979782 29.6949975,45.3165835 C29.5670032,45.6522807 29.5035626,46.0222102 29.5035626,46.4274763 C29.5035626,46.8393679 29.5681162,47.2126102 29.7005624,47.5483074 C29.8307826,47.8851089 30.0155396,48.1722183 30.2514941,48.41074 C30.4885617,48.6492617 30.7701491,48.8336744 31.0973691,48.9628736 C31.4257022,49.0931771 31.786312,49.1583289 32.1791987,49.1583289 C32.5765373,49.1583289 32.9538421,49.1042198 33.313339,48.9960016 C33.6717228,48.8866792 34.0111858,48.6978495 34.3317279,48.4261998 L33.7629883,47.6189805 C33.5448416,47.7923504 33.303322,47.927071 33.0406556,48.0231423 C32.7757632,48.1192135 32.5130967,48.166697 32.2515433,48.166697 C32.0656734,48.166697 31.8853684,48.1412989 31.7150805,48.0905026 C31.5436795,48.0397063 31.3889734,47.9613033 31.2509622,47.8552937 C31.112951,47.7481798 30.9949737,47.6123549 30.8959173,47.4456106 C30.7979739,47.2799705 30.7300813,47.0789939 30.6933525,46.843785 L34.5610045,46.843785 C34.5687955,46.7797375 34.5732475,46.7112729 34.5765865,46.6383913 C34.5799254,46.5655097 34.5821514,46.4937323 34.5821514,46.4219549 C34.5821514,46.0166889 34.5220498,45.6478637 34.3996205,45.3132707 C34.2783042,44.979782 34.1080162,44.6926726 33.8920955,44.4519424 L33.8920955,44.4519424 Z" id="Fill-7" fill="#FFFFFF"></path>
                    <path d="M49.013335,47.0883801 C48.9376514,47.290461 48.8296911,47.4660395 48.6916799,47.6140113 C48.5536687,47.7619831 48.3878327,47.8790354 48.1952848,47.9629597 C48.001624,48.0479883 47.7868163,48.0910547 47.5508617,48.0910547 C47.3026641,48.0910547 47.0811785,48.046884 46.8864046,47.9585426 C46.6916308,47.8702013 46.5269077,47.7509404 46.3922355,47.5996558 C46.2564504,47.4505798 46.154055,47.273897 46.0805974,47.0718161 C46.0082528,46.8697353 45.971524,46.6544032 45.971524,46.4269241 C45.971524,46.1994451 46.0082528,45.984113 46.0805974,45.7820321 C46.154055,45.5799512 46.2564504,45.4043728 46.3922355,45.2541924 C46.5269077,45.1040121 46.6916308,44.9847512 46.8864046,44.8964099 C47.0811785,44.8080685 47.3026641,44.7638978 47.5508617,44.7638978 C47.7868163,44.7638978 48.001624,44.80586 48.1952848,44.8908885 C48.3878327,44.9759171 48.5536687,45.0918652 48.6916799,45.2409412 C48.8296911,45.3878088 48.9376514,45.5633872 49.013335,45.7654681 C49.0901315,45.9686533 49.1290863,46.1884024 49.1290863,46.4269241 C49.1290863,46.6654458 49.0901315,46.8862993 49.013335,47.0883801 L49.013335,47.0883801 Z M49.0578547,44.4602244 C48.8753238,44.2283283 48.6504991,44.0439156 48.3811547,43.904778 C48.1106973,43.7656403 47.7879293,43.6960715 47.4139635,43.6960715 C47.0455627,43.6960715 46.7038737,43.7634318 46.3866706,43.8992567 C46.0694675,44.0339772 45.7923321,44.2239112 45.5574905,44.4657457 C45.3204229,44.7075802 45.134553,44.9957939 44.9998808,45.3292826 C44.8640956,45.6638755 44.797316,46.0304922 44.797316,46.4269241 C44.797316,46.8244603 44.8640956,47.1899727 44.9998808,47.5245657 C45.134553,47.8591586 45.3204229,48.1462681 45.5574905,48.3881026 C45.7923321,48.6299371 46.0694675,48.819871 46.3866706,48.9545916 C46.7038737,49.0904165 47.0455627,49.158881 47.4139635,49.158881 C47.7879293,49.158881 48.1106973,49.0893122 48.3811547,48.9523831 C48.6504991,48.8143497 48.8753238,48.6299371 49.0578547,48.3991452 L49.0578547,49.0219519 L50.1986729,49.0219519 L50.1986729,43.8318964 L49.0578547,43.8318964 L49.0578547,44.4602244 Z" id="Fill-9" fill="#FFFFFF"></path>
                    <path d="M28.0979632,47.9878057 C27.9143193,48.0562703 27.7340144,48.0905026 27.5548225,48.0905026 C27.4379582,48.0905026 27.3299978,48.0728343 27.2298284,48.0363935 C27.129659,48.0010569 27.0428455,47.943635 26.967162,47.8663363 C26.8937044,47.7879334 26.8336028,47.6885493 26.790196,47.5648714 C26.7467893,47.4422978 26.7256424,47.294326 26.7256424,47.120956 L26.7256424,44.8605212 L28.5576295,44.8605212 L28.5576295,43.8313442 L26.7256424,43.8313442 L26.7256424,42.2599721 L25.5770332,42.2599721 L25.5770332,43.8313442 L24.5352714,43.8313442 L24.5352714,44.8605212 L25.5770332,44.8605212 L25.5770332,47.1419371 C25.5770332,47.8321041 25.7428692,48.3411712 26.0723153,48.6680343 C26.4017613,48.9948974 26.8636536,49.1583289 27.4568791,49.1583289 C27.7885511,49.1583289 28.0857203,49.1075326 28.3506127,49.0070443 C28.5242397,48.939684 28.6856238,48.8634896 28.8369909,48.778461 L28.4463302,47.8309998 C28.3372568,47.889526 28.2203925,47.9414265 28.0979632,47.9878057" id="Fill-11" fill="#FFFFFF"></path>
                    <path d="M38.4040594,43.6957402 C38.0835173,43.6957402 37.794139,43.7542664 37.5359246,43.8691102 C37.2765971,43.9850582 37.0606764,44.2633335 36.8859364,44.5128979 L36.8859364,43.8315651 L35.8497396,43.8315651 L35.8497396,49.0227249 L36.8970664,49.0227249 L36.8970664,46.1670901 C36.8970664,45.9462366 36.9282302,45.7496771 36.9894448,45.5763072 C37.0517724,45.4029372 37.1363599,45.2571739 37.2465463,45.1379131 C37.3567326,45.0186522 37.4869529,44.9281023 37.639433,44.8662634 C37.791913,44.8044244 37.959975,44.7746092 38.142506,44.7746092 C38.2805171,44.7746092 38.4296583,44.790069 38.5899293,44.823197 C38.6711778,44.839761 38.7490874,44.8596378 38.8192059,44.8839317 L39.1575559,43.8006456 C39.0651775,43.7719346 38.972799,43.7465365 38.8770816,43.7310768 C38.7368444,43.7078872 38.5787994,43.6957402 38.4040594,43.6957402" id="Fill-13" fill="#FFFFFF"></path>
                    <path d="M54.2728965,43.6957402 C53.9523544,43.6957402 53.6629761,43.7542664 53.4047617,43.8691102 C53.1454342,43.9850582 52.9295135,44.2633335 52.7547735,44.5128979 L52.7547735,43.8315651 L51.7174637,43.8315651 L51.7174637,49.0227249 L52.7659035,49.0227249 L52.7659035,46.1670901 C52.7659035,45.9462366 52.7959543,45.7496771 52.8582819,45.5763072 C52.9194966,45.4029372 53.0051971,45.2571739 53.1142704,45.1379131 C53.2244567,45.0186522 53.35579,44.9281023 53.5082701,44.8662634 C53.6607502,44.8044244 53.8288122,44.7746092 54.0113431,44.7746092 C54.1493543,44.7746092 54.2973824,44.790069 54.4576534,44.823197 C54.5400149,44.839761 54.6168115,44.8596378 54.6880431,44.8839317 L55.02528,43.8006456 C54.9340146,43.7719346 54.8405231,43.7465365 54.7448057,43.7310768 C54.6045685,43.7078872 54.4465235,43.6957402 54.2728965,43.6957402" id="Fill-15" fill="#FFFFFF"></path>
                    <path d="M59.5607281,47.0883801 C59.4850445,47.290461 59.3770842,47.4660395 59.23796,47.6140113 C59.0999488,47.7619831 58.9352258,47.8790354 58.741565,47.9629597 C58.5490171,48.0479883 58.3330964,48.0910547 58.0971418,48.0910547 C57.8489443,48.0910547 57.6285716,48.046884 57.4337977,47.9585426 C57.2379109,47.8702013 57.0743009,47.7509404 56.9396287,47.5996558 C56.8038435,47.4505798 56.7003351,47.273897 56.6279905,47.0718161 C56.554533,46.8697353 56.5189172,46.6544032 56.5189172,46.4269241 C56.5189172,46.1994451 56.554533,45.984113 56.6279905,45.7820321 C56.7003351,45.5799512 56.8038435,45.4043728 56.9396287,45.2541924 C57.0743009,45.1040121 57.2379109,44.9847512 57.4337977,44.8964099 C57.6285716,44.8080685 57.8489443,44.7638978 58.0971418,44.7638978 C58.3330964,44.7638978 58.5490171,44.80586 58.741565,44.8908885 C58.9352258,44.9759171 59.0999488,45.0918652 59.23796,45.2409412 C59.3770842,45.3878088 59.4850445,45.5633872 59.5607281,45.7654681 C59.6364116,45.9686533 59.6753664,46.1884024 59.6753664,46.4269241 C59.6753664,46.6654458 59.6364116,46.8862993 59.5607281,47.0883801 L59.5607281,47.0883801 Z M59.6041348,41.7216419 L59.6041348,44.4602244 C59.4227169,44.2283283 59.1967793,44.0439156 58.9274349,43.904778 C58.6569775,43.7656403 58.3353224,43.6960715 57.9613566,43.6960715 C57.5918428,43.6960715 57.2501538,43.7634318 56.9340637,43.8992567 C56.6157476,44.0339772 56.3397252,44.2239112 56.1037706,44.4657457 C55.866703,44.7075802 55.6808332,44.9957939 55.5472739,45.3292826 C55.4103758,45.6638755 55.3435962,46.0304922 55.3435962,46.4269241 C55.3435962,46.8244603 55.4103758,47.1899727 55.5472739,47.5245657 C55.6808332,47.8591586 55.866703,48.1462681 56.1037706,48.3881026 C56.3397252,48.6299371 56.6157476,48.819871 56.9340637,48.9545916 C57.2501538,49.0904165 57.5918428,49.158881 57.9613566,49.158881 C58.3353224,49.158881 58.6569775,49.0893122 58.9274349,48.9523831 C59.1967793,48.8143497 59.4227169,48.6299371 59.6041348,48.3991452 L59.6041348,49.0219519 L60.7449531,49.0219519 L60.7449531,41.7216419 L59.6041348,41.7216419 Z" id="Fill-17" fill="#FFFFFF"></path>
                    <path d="M41.1365695,45.2265857 C41.2823716,45.0808225 41.4548856,44.967083 41.6552244,44.8853672 C41.8555632,44.8047557 42.0725969,44.7638978 42.3052125,44.7638978 C42.561201,44.7638978 42.7993816,44.8036514 43.0197543,44.8853672 C43.233449,44.9637702 43.4182059,45.0730926 43.574025,45.2133345 L44.1238437,44.3067312 C43.9179399,44.1432997 43.6853243,44.0085791 43.4282229,43.904778 C43.0831949,43.7656403 42.7092291,43.6960715 42.3052125,43.6960715 C41.9011959,43.6960715 41.5272302,43.7656403 41.1822022,43.904778 C40.8382872,44.0439156 40.542231,44.2349539 40.2918075,44.4789969 C40.04361,44.7230399 39.8477231,45.0112537 39.70526,45.3436381 C39.5627968,45.6760225 39.4915652,46.0371178 39.4915652,46.4269241 C39.4915652,46.8167304 39.5627968,47.17893 39.70526,47.5113145 C39.8477231,47.8436989 40.04361,48.1308083 40.2918075,48.3759556 C40.542231,48.6188944 40.8382872,48.8110369 41.1822022,48.9501745 C41.5272302,49.0893122 41.9011959,49.158881 42.3052125,49.158881 C42.7092291,49.158881 43.0831949,49.0893122 43.4282229,48.9501745 C43.6853243,48.8452692 43.9179399,48.7116528 44.1238437,48.5482213 L43.574025,47.641618 C43.4182059,47.7807556 43.233449,47.8900781 43.0197543,47.9684811 C42.7993816,48.0501968 42.561201,48.0910547 42.3052125,48.0910547 C42.0725969,48.0910547 41.8555632,48.0501968 41.6552244,47.9684811 C41.4548856,47.8878696 41.2823716,47.77413 41.1365695,47.6272625 C40.9907673,47.4814992 40.876129,47.3059208 40.7915415,47.1016313 C40.708067,46.8973419 40.6657733,46.6731757 40.6657733,46.4269241 C40.6657733,46.1817768 40.708067,45.9565063 40.7915415,45.7522169 C40.876129,45.5490318 40.9907673,45.3734533 41.1365695,45.2265857" id="Fill-19" fill="#FFFFFF"></path>
                    <g id="Group-23" transform="translate(62.327630, 48.217714)">
                        <mask id="mask-2" fill="white">
                            <use xlink:href="#path-1"></use>
                        </mask>
                        <g id="Clip-22"></g>
                        <path d="M0.751381835,0.453743367 L0.751381835,0.539876204 L0.85155124,0.539876204 C0.871585121,0.539876204 0.888280022,0.536563402 0.899409956,0.529937799 C0.91053989,0.523312197 0.914991863,0.513373792 0.914991863,0.496809785 C0.914991863,0.482454313 0.91053989,0.471411641 0.899409956,0.463681771 C0.888280022,0.457056168 0.871585121,0.453743367 0.85155124,0.453743367 L0.751381835,0.453743367 Z M0.853777227,0.338899585 C0.918330843,0.338899585 0.967302552,0.353255057 1.00180535,0.381966003 C1.03519515,0.410676949 1.05300304,0.449326298 1.05300304,0.496809785 C1.05300304,0.534354868 1.04076012,0.566378615 1.01516127,0.590672492 C0.991788407,0.614966369 0.957285612,0.631530376 0.911652883,0.639260246 L1.05745502,0.808213118 L0.899409956,0.808213118 L0.768076736,0.643677315 L0.751381835,0.643677315 L0.751381835,0.808213118 L0.618935622,0.808213118 L0.618935622,0.338899585 L0.853777227,0.338899585 Z M0.822613412,0.957289182 C0.876037095,0.957289182 0.926121797,0.94624651 0.972867519,0.926369702 C1.01961324,0.906492893 1.059681,0.878886215 1.09529679,0.844653934 C1.12868659,0.810421652 1.15539843,0.769563768 1.17654531,0.723184549 C1.1954662,0.676805329 1.20548314,0.627113308 1.20548314,0.573004218 C1.20548314,0.521103662 1.1954662,0.471411641 1.17654531,0.425032421 C1.15539843,0.377548934 1.12868659,0.337795317 1.09529679,0.303563036 C1.059681,0.269330755 1.01961324,0.241724076 0.972867519,0.221847268 C0.926121797,0.20197046 0.876037095,0.192032055 0.822613412,0.192032055 C0.76918973,0.192032055 0.717992034,0.20197046 0.670133318,0.221847268 C0.623387596,0.241724076 0.582206841,0.269330755 0.546591052,0.303563036 C0.512088257,0.337795317 0.485376416,0.377548934 0.465342535,0.425032421 C0.446421647,0.471411641 0.436404707,0.521103662 0.436404707,0.573004218 C0.436404707,0.627113308 0.446421647,0.676805329 0.465342535,0.723184549 C0.485376416,0.769563768 0.512088257,0.810421652 0.546591052,0.844653934 C0.582206841,0.878886215 0.623387596,0.906492893 0.670133318,0.926369702 C0.717992034,0.94624651 0.76918973,0.957289182 0.822613412,0.957289182 L0.822613412,0.957289182 Z M0.822613412,0.0440602588 C0.899409956,0.0440602588 0.969528539,0.0584157316 1.03742114,0.08602241 C1.10308775,0.113629088 1.1609634,0.152278438 1.2110481,0.200866192 C1.26001981,0.248349679 1.29897458,0.303563036 1.32791241,0.36761053 C1.35685024,0.431658024 1.37131915,0.500122587 1.37131915,0.573004218 C1.37131915,0.645885849 1.35685024,0.714350411 1.32791241,0.778397905 C1.29897458,0.843549667 1.26001981,0.899867291 1.2110481,0.948455045 C1.1609634,0.995938532 1.10308775,1.03458788 1.03742114,1.06219456 C0.969528539,1.08980124 0.899409956,1.10415671 0.822613412,1.10415671 C0.744703875,1.10415671 0.673472298,1.08980124 0.605579702,1.06219456 C0.538800099,1.03458788 0.479811449,0.995938532 0.43083974,0.948455045 C0.380755038,0.899867291 0.341800269,0.843549667 0.313975434,0.778397905 C0.2861506,0.714350411 0.271681686,0.645885849 0.271681686,0.573004218 C0.271681686,0.500122587 0.2861506,0.431658024 0.313975434,0.36761053 C0.341800269,0.303563036 0.380755038,0.248349679 0.43083974,0.200866192 C0.479811449,0.152278438 0.538800099,0.113629088 0.605579702,0.08602241 C0.673472298,0.0584157316 0.744703875,0.0440602588 0.822613412,0.0440602588 L0.822613412,0.0440602588 Z" id="Fill-21" fill="#FFFFFF" mask="url(#mask-2)"></path>
                    </g>
                    <path d="M24.463372,19.5647426 C24.463372,13.3455101 27.3916576,7.80871464 31.9515915,4.22426351 C28.5892385,1.58175225 24.3420558,0.000441706855 19.7186812,0.000441706855 C8.82804095,0.000441706855 0.000890394709,8.75948864 0.000890394709,19.5647426 C0.000890394709,30.3699965 8.82804095,39.1301477 19.7186812,39.1301477 C24.3420558,39.1301477 28.5892385,37.5477329 31.9515915,34.9052217 C27.3916576,31.3207705 24.463372,25.7839751 24.463372,19.5647426" id="Fill-24" fill="#ED2026"></path>
                    <path d="M24.463372,19.5647426 C24.463372,25.7839751 27.3916576,31.3207705 31.9515915,34.9052217 C36.5104125,31.3207705 39.4386981,25.7839751 39.4386981,19.5647426 C39.4386981,13.3455101 36.5104125,7.80871464 31.9515915,4.22426351 C27.3916576,7.80871464 24.463372,13.3455101 24.463372,19.5647426" id="Fill-26" fill="#F26A21"></path>
                    <path d="M63.8006764,30.1474867 L63.8006764,29.6417324 L63.6359534,30.0779179 L63.4534225,30.0779179 L63.2864735,29.6417324 L63.2864735,30.1474867 L63.1150725,30.1474867 L63.1150725,29.4175661 L63.361044,29.4175661 L63.5446879,29.8846711 L63.7261058,29.4175661 L63.9731904,29.4175661 L63.9731904,30.1474867 L63.8006764,30.1474867 Z M62.5652537,30.1474867 L62.5652537,29.5743721 L62.3315251,29.5743721 L62.3315251,29.4175661 L62.9703833,29.4175661 L62.9703833,29.5743721 L62.7377677,29.5743721 L62.7377677,30.1474867 L62.5652537,30.1474867 Z" id="Fill-28" fill="#F99F1D"></path>
                    <path d="M44.1831663,0.000110426714 C39.5609047,0.000110426714 35.312609,1.58252524 31.9513689,4.2250365 C36.5101899,7.80838336 39.4384755,13.3451788 39.4384755,19.5644113 C39.4384755,25.7847481 36.5101899,31.3215435 31.9513689,34.9048904 C35.312609,37.5474016 39.5609047,39.1298165 44.1831663,39.1298165 C55.0726936,39.1298165 63.9020701,30.3696653 63.9020701,19.5644113 C63.9020701,8.75915736 55.0726936,0.000110426714 44.1831663,0.000110426714" id="Fill-30" fill="#F99F1D"></path>
                </g>
            </g>
        </g>
    </g>
</svg>