<?xml version="1.0" encoding="UTF-8" standalone="no"?>
<svg width="9px" height="13px" viewBox="0 0 9 13" version="1.1" xmlns="http://www.w3.org/2000/svg" xmlns:xlink="http://www.w3.org/1999/xlink">
    <!-- Generator: Sketch 47 (45396) - http://www.bohemiancoding.com/sketch -->
    <title>noun_821474_cc</title>
    <desc>Created with Sketch.</desc>
    <defs></defs>
    <g id="Platform" stroke="none" stroke-width="1" fill="none" fill-rule="evenodd">
        <g id="Buttons" transform="translate(-532.000000, -2127.000000)" fill-rule="nonzero" fill="#FFFFFF">
            <g id="noun_821474_cc" transform="translate(532.000000, 2127.000000)">
                <path d="M4.51384615,0.14012987 C2.75391073,0.141990861 1.32767702,1.53323759 1.32576923,3.25 L1.32576923,5.00415584 L0.0380769231,5.00415584 L0.0380769231,12.8919481 L8.99134615,12.8919481 L8.99134615,5.00415584 L7.70192308,5.00415584 L7.70192308,3.25 C7.70001529,1.53323759 6.27378158,0.141990861 4.51384615,0.14012987 Z M2.53730769,3.25 C2.53730769,2.18516631 3.4222341,1.32194805 4.51384615,1.32194805 C5.6054582,1.32194805 6.49038462,2.18516631 6.49038462,3.25 L6.49038462,5.00415584 L2.53730769,5.00415584 L2.53730769,3.25 Z M7.77980769,6.18597403 L7.77980769,11.7101299 L1.24961538,11.7101299 L1.24961538,6.18597403 L7.77980769,6.18597403 Z" id="Shape"></path>
            </g>
        </g>
    </g>
</svg>