<?xml version="1.0" encoding="UTF-8" standalone="no"?>
<svg width="170px" height="40px" viewBox="0 0 170 40" version="1.1" xmlns="http://www.w3.org/2000/svg" xmlns:xlink="http://www.w3.org/1999/xlink">
    <!-- Generator: Sketch 47 (45396) - http://www.bohemiancoding.com/sketch -->
    <title>Page 1</title>
    <desc>Created with Sketch.</desc>
    <defs></defs>
    <g id="Platform" stroke="none" stroke-width="1" fill="none" fill-rule="evenodd">
        <g id="Cards" transform="translate(-528.000000, -1732.000000)">
            <g id="Page-1" transform="translate(528.000000, 1732.000000)">
                <path d="M27.560806,23.0943639 C27.4796119,21.7976094 26.3479701,20.8117726 25.043791,20.8117726 L20.2812537,20.8117726 L20.2812537,25.8016234 L25.1072239,25.8016234 C26.5978955,25.8016234 27.6584925,24.6464249 27.560806,23.0943639 M20.2812537,12.5762439 L20.2812537,16.9151896 C20.2812537,17.0125094 20.3599104,17.0908708 20.4563284,17.0908708 L24.4690896,17.0908708 C25.8506567,17.0908708 26.8579701,15.9735891 26.7374478,14.5276951 C26.6359552,13.3295243 25.5817015,12.4334239 24.3764776,12.4334239 L20.4233433,12.4334239 C20.3446866,12.4334239 20.2812537,12.4966186 20.2812537,12.5762439 M31.725806,23.5645322 C31.725806,27.1931699 28.7812537,29.703262 25.1072239,29.703262 L16.2634179,29.703262 C16.1682687,29.703262 16.0908806,29.6261645 16.0908806,29.5326364 L16.0908806,8.69988314 C16.0908806,8.60761893 16.167,8.53178533 16.2608806,8.53178533 L24.4690896,8.53178533 C28.0530448,8.53178533 30.9367015,10.952141 30.9367015,14.4897783 C30.9367015,16.3047291 30.1780448,17.7266091 28.9334925,18.7238209 C30.6334925,19.6919632 31.725806,21.3565106 31.725806,23.5645322" id="Fill-1" fill="#FFFFFF"></path>
                <path d="M45.4694179,21.7835802 L42.774791,13.7856634 C42.7278507,13.6428434 42.523597,13.6428434 42.4753881,13.7856634 L39.7807612,21.7835802 C39.7465075,21.8859555 39.8226269,21.9908587 39.9304627,21.9908587 L45.3197164,21.9908587 C45.4275522,21.9908587 45.5036716,21.8859555 45.4694179,21.7835802 M46.7317313,25.8924973 L38.4892687,25.8924973 C38.4207612,25.8924973 38.3598657,25.9367336 38.3382985,25.9999282 L37.1368806,29.5957047 C37.1140448,29.6601632 37.0531493,29.7043995 36.9859104,29.7043995 L32.7993433,29.7043995 C32.6902388,29.7043995 32.6141194,29.5969686 32.6509104,29.4945932 L39.977403,8.63782598 C39.9989701,8.57336742 40.058597,8.53165894 40.1271045,8.53165894 L45.0938955,8.53165894 C45.1611343,8.53165894 45.2207612,8.57336742 45.2423284,8.63656208 L52.6005373,29.4945932 C52.6360597,29.5969686 52.5599403,29.7043995 52.4508358,29.7043995 L48.2350896,29.7043995 C48.1665821,29.7043995 48.1056866,29.6601632 48.0853881,29.5957047 L46.8814328,25.9999282 C46.8598657,25.9367336 46.8002388,25.8924973 46.7317313,25.8924973" id="Fill-3" fill="#FFFFFF"></path>
                <path d="M71.2241642,8.70203176 L71.2241642,29.5335211 C71.2241642,29.6270492 71.1467761,29.7041467 71.0528955,29.7041467 L68.1261045,29.7041467 C68.0702836,29.7041467 68.0182687,29.6763411 67.9852836,29.6308409 L58.9296119,16.7593515 L58.9296119,29.5335211 C58.9296119,29.6270492 58.8522239,29.7041467 58.7583433,29.7041467 L54.9105075,29.7041467 C54.8153582,29.7041467 54.7392388,29.6270492 54.7392388,29.5335211 L54.7392388,8.70203176 C54.7392388,8.60723976 54.8153582,8.53140616 54.9105075,8.53140616 L57.8372985,8.53140616 C57.8931194,8.53140616 57.946403,8.55921181 57.9793881,8.60344808 L67.0350597,21.4471318 L67.0350597,8.70203176 C67.0350597,8.60723976 67.1111791,8.53140616 67.2063284,8.53140616 L71.0528955,8.53140616 C71.1467761,8.53140616 71.2241642,8.60723976 71.2241642,8.70203176" id="Fill-5" fill="#FFFFFF"></path>
                <path d="M86.5348209,29.6174436 L82.6108657,23.0616291 C82.5423582,22.9478787 82.3748955,22.9478787 82.3051194,23.0616291 L78.3798955,29.6174436 C78.3481791,29.6705272 78.2898209,29.7033884 78.2276567,29.7033884 L73.9053433,29.7033884 C73.7683284,29.7033884 73.6820597,29.554249 73.7531045,29.435443 L80.0354925,18.9362814 C80.0684776,18.8794062 80.0684776,18.8111559 80.0354925,18.7542807 L74.0854925,8.7985932 C74.0169851,8.68105113 74.1007164,8.53191172 74.2402687,8.53191172 L78.5625821,8.53191172 C78.6247463,8.53191172 78.6831045,8.56477294 78.7148209,8.61785646 L82.3051194,14.6276691 C82.3748955,14.7426834 82.5423582,14.7426834 82.6108657,14.6276691 L86.2011642,8.61785646 C86.2328806,8.56477294 86.2912388,8.53191172 86.353403,8.53191172 L90.6757164,8.53191172 C90.814,8.53191172 90.899,8.68231502 90.8279552,8.7998571 L84.8804925,18.7239473 C84.8462388,18.7795586 84.8462388,18.8503366 84.8804925,18.9059479 L91.1933284,29.435443 C91.2643731,29.554249 91.1781045,29.7033884 91.0398209,29.7033884 L86.6870597,29.7033884 C86.6248955,29.7033884 86.5665373,29.6705272 86.5348209,29.6174436" id="Fill-7" fill="#FFFFFF"></path>
                <path d="M5.1598806,25.7005119 C4.61308955,25.6297339 4.18935821,25.1696767 4.18935821,24.6047164 L4.18935821,21.1264821 C4.18935821,21.0367456 4.2629403,20.9621759 4.35301493,20.9621759 L12.0702537,20.9621759 C12.161597,20.9621759 12.2351791,20.8888701 12.2351791,20.7991337 L12.2351791,17.19451 C12.2351791,17.1035097 12.161597,17.0314678 12.0702537,17.0314678 L4.35301493,17.0314678 C4.2629403,17.0314678 4.18935821,16.958162 4.18935821,16.8671616 L4.18935821,12.6874665 C4.18935821,12.5977301 4.2629403,12.5244243 4.35301493,12.5244243 L12.8301791,12.5244243 C12.9202537,12.5244243 12.9938358,12.4511185 12.9938358,12.3601181 L12.9938358,8.69482756 C12.9938358,8.60509114 12.9202537,8.53178533 12.8301791,8.53178533 L0.163910448,8.53178533 C0.0725671642,8.53178533 0.000253731343,8.60509114 0.000253731343,8.69482756 L0.000253731343,21.4500387 L0.000253731343,25.7548593 C0.000253731343,27.9401308 1.77764179,29.7108453 3.97114925,29.7108453 L13.1460746,29.7108453 L13.1460746,25.7005119 L5.1598806,25.7005119 Z" id="Fill-9" fill="#FFFFFF"></path>
                <path d="M169.54506,18.14243 C168.879015,8.49260464 161.069164,0.713341378 151.38297,0.0485335027 C141.841403,-0.6112188 133.319836,5.61851127 131.013418,14.7021124 L131.008343,14.7021124 C130.626478,16.0127698 129.942672,16.1796037 128.774239,16.1796037 L122.792522,16.2036177 C121.474388,16.2099371 120.411254,17.2804547 120.416328,18.5936399 L120.426478,20.5640495 C120.432821,21.8784986 121.507373,22.9376412 122.825507,22.9313217 L130.627746,22.8984605 C133.937672,22.8832937 136.770582,20.499591 137.364313,17.2286351 C138.52894,10.8093211 144.357149,6.30606923 150.917373,6.75980692 C157.258119,7.19458622 162.372075,12.2880762 162.808493,18.6050149 C163.083791,22.5799594 161.572821,26.3425697 158.576254,29.0422458 C156.514687,30.9001689 153.869537,32.0439924 151.097522,32.2677015 C147.126627,32.5899943 143.382821,31.1580032 140.681851,28.3218266 C139.408119,26.9833636 137.609164,26.2174443 135.744239,26.2174443 L135.726478,26.2174443 C133.839985,26.2224998 132.022,27.0073776 130.736851,28.3711185 C127.96991,31.3084065 124.057373,32.7682032 119.99894,32.3637574 C113.848493,31.7558247 108.886776,26.6547513 108.461776,20.4970632 C108.182672,16.471563 109.729164,12.6609247 112.789164,9.94355414 C114.969985,8.00726961 117.78894,6.87608511 120.708119,6.74211242 C121.965358,6.68397332 123.198493,6.8015154 124.388493,7.08968307 C125.546776,7.37026739 126.740582,6.81289044 127.20491,5.71962274 L127.982597,3.88571356 C128.552224,2.54345888 127.784687,1.02425913 126.370134,0.650146713 C124.775433,0.229270245 123.129985,0.0106167037 121.45409,0.00050555732 C116.291925,-0.0310917752 111.268045,1.98102636 107.585134,5.58312226 C103.409985,9.66676151 101.324313,15.168489 101.725209,20.960912 C102.374761,30.3503754 109.944836,38.1309025 119.332896,39.0598641 C120.004015,39.1255865 120.672597,39.1571839 121.334836,39.1571839 C125.716776,39.1571839 129.904612,37.7289844 133.332522,35.0836558 L134.399463,34.1913471 C135.197448,33.5240114 136.364612,33.529067 137.156254,34.2052499 L138.187672,35.0836558 C141.567373,37.6228174 145.729836,39.0396418 150.000134,39.0396418 C155.409687,39.0396418 160.632746,36.7798006 164.327075,32.8364535 C168.070881,28.838759 169.925657,23.6201435 169.54506,18.14243" id="Fill-11" fill="#34D9C3"></path>
            </g>
        </g>
    </g>
</svg>