<?xml version="1.0" encoding="UTF-8" standalone="no"?>
<svg width="130px" height="49px" viewBox="0 0 130 49" version="1.1" xmlns="http://www.w3.org/2000/svg" xmlns:xlink="http://www.w3.org/1999/xlink">
    <!-- Generator: Sketch 47 (45396) - http://www.bohemiancoding.com/sketch -->
    <title>Group 9</title>
    <desc>Created with Sketch.</desc>
    <defs>
        <polygon id="path-1" points="0 24.18543 0 0.170270008 15.0795066 0.170270008 15.0795066 24.18543 1.54642918e-15 24.18543"></polygon>
        <polygon id="path-3" points="0.439888237 0.170270008 17.5061758 0.170270008 17.5061758 8.11074106 0.439888237 8.11074106 0.439888237 0.170270008"></polygon>
        <polygon id="path-5" points="0.0139705802 0.170270008 17.9189808 0.170270008 17.9189808 24.185508 0.0139705802 24.185508"></polygon>
        <polygon id="path-7" points="0.325255462 0.170270008 19.2035803 0.170270008 19.2035803 24.1854167 0.325255462 24.1854167 0.325255462 0.170270008"></polygon>
        <polygon id="path-9" points="0.327672322 0.170270008 20.3571659 0.170270008 20.3571659 24.185508 0.327672322 24.185508 0.327672322 0.170270008"></polygon>
        <polygon id="path-11" points="15.1455893 0.170270008 0.0915951949 0.170270008 0.0915951949 24.1937704 15.1455893 24.1937704 15.1455893 0.170270008"></polygon>
    </defs>
    <g id="Platform" stroke="none" stroke-width="1" fill="none" fill-rule="evenodd">
        <g id="Cards" transform="translate(-100.000000, -56.000000)">
            <g id="Group-9" transform="translate(100.000000, 56.000000)">
                <g id="Page-1">
                    <g id="Group-3" transform="translate(0.000000, 0.286309)">
                        <mask id="mask-2" fill="white">
                            <use xlink:href="#path-1"></use>
                        </mask>
                        <g id="Clip-2"></g>
                        <path d="M0.336727992,0.216466589 L15.0035242,12.0198757 C15.1048341,12.101587 15.1048341,12.254054 15.0035242,12.3357653 L0.336727992,24.1391744 C0.202110811,24.2478186 -4.62601994e-05,24.1528691 -4.62601994e-05,23.9812296 L-4.62601994e-05,0.374411422 C-4.62601994e-05,0.20277195 0.202110811,0.107822455 0.336727992,0.216466589" id="Fill-1" fill="#FFFFFF" mask="url(#mask-2)"></path>
                    </g>
                    <g id="Group-6" transform="translate(1.850408, 0.286309)">
                        <mask id="mask-4" fill="white">
                            <use xlink:href="#path-3"></use>
                        </mask>
                        <g id="Clip-5"></g>
                        <path d="M17.3174594,0.170133061 L0.439888237,0.170133061 L10.3053384,8.11074106 L17.4557774,0.482370824 C17.5672645,0.363227467 17.4816831,0.170133061 17.3174594,0.170133061" id="Fill-4" fill="#FFFFFF" mask="url(#mask-4)"></path>
                    </g>
                    <path d="M19.1678674,24.4717716 L2.29029621,24.4717716 L12.1557464,16.5311636 L19.3061854,24.1590773 C19.4176725,24.2786772 19.3320911,24.4717716 19.1678674,24.4717716" id="Fill-7" fill="#FFFFFF"></path>
                    <g id="Group-11" transform="translate(43.021985, 0.286309)">
                        <mask id="mask-6" fill="white">
                            <use xlink:href="#path-5"></use>
                        </mask>
                        <g id="Clip-10"></g>
                        <path d="M13.148629,16.6886063 C13.0551834,15.2168891 11.7594352,14.0989501 10.2656934,14.0989501 L4.81207847,14.0989501 L4.81207847,19.7598572 L10.3397097,19.7598572 C12.0471737,19.7598572 13.2605787,18.4492803 13.148629,16.6886063 M4.81207847,4.75783702 L4.81207847,9.67969017 C4.81207847,9.78970377 4.90274846,9.87917541 5.01423554,9.87917541 L9.60972375,9.87917541 C11.19136,9.87917541 12.3450893,8.61196484 12.2058461,6.97134713 C12.0906583,5.61283897 10.8837296,4.5957838 9.50193749,4.5957838 L4.97583957,4.5957838 C4.88563218,4.5957838 4.81207847,4.66836538 4.81207847,4.75783702 M17.9189808,17.2208712 C17.9189808,21.3379361 14.5461496,24.185508 10.3397097,24.185508 L0.211501632,24.185508 C0.102790163,24.185508 0.0139705802,24.0978623 0.0139705802,23.9905876 L0.0139705802,0.361401515 C0.0139705802,0.255496309 0.100939755,0.170133061 0.207800816,0.170133061 L9.60972375,0.170133061 C13.7120782,0.170133061 17.0145939,2.91499514 17.0145939,6.92889375 C17.0145939,8.98719794 16.1458273,10.5995134 14.720088,11.73206 C16.6671798,12.8294571 17.9189808,14.7165783 17.9189808,17.2208712" id="Fill-9" fill="#FFFFFF" mask="url(#mask-6)"></path>
                    </g>
                    <g id="Group-14" transform="translate(61.988667, 0.286309)" fill="#FFFFFF">
                        <path d="M14.6909441,15.2014598 L11.6053888,6.12967463 C11.5503391,5.96716492 11.3171877,5.96716492 11.2621381,6.12967463 L8.17612017,15.2014598 C8.136799,15.3169512 8.22423078,15.4370076 8.34774551,15.4370076 L14.5193187,15.4370076 C14.6428335,15.4370076 14.7302652,15.3169512 14.6909441,15.2014598 M16.1356501,19.8626583 L6.69671899,19.8626583 C6.61900186,19.8626583 6.54961156,19.911959 6.52509365,19.9849971 L5.14700231,24.0632605 C5.12248441,24.1362986 5.05355671,24.1855993 4.97537697,24.1855993 L0.181432502,24.1855993 C0.0560673617,24.1855993 -0.0309018132,24.063717 0.0102697643,23.947769 L8.40094474,0.289824204 C8.42685045,0.218155594 8.49485295,0.170224359 8.57210748,0.170224359 L14.2602616,0.170224359 C14.3370535,0.170224359 14.4059812,0.218155594 14.4309617,0.289367716 L22.8567945,23.9473125 C22.897966,24.063717 22.8109969,24.1855993 22.6856317,24.1855993 L17.8569921,24.1855993 C17.779275,24.1855993 17.7098847,24.1362986 17.6853668,24.0632605 L16.3072754,19.9849971 C16.2827575,19.911959 16.2138298,19.8626583 16.1356501,19.8626583" id="Fill-12"></path>
                    </g>
                    <g id="Group-17" transform="translate(86.969175, 0.286309)">
                        <mask id="mask-8" fill="white">
                            <use xlink:href="#path-7"></use>
                        </mask>
                        <g id="Clip-16"></g>
                        <path d="M19.2035803,0.363592657 L19.2035803,23.9918658 C19.2035803,24.098684 19.1161485,24.1854167 19.0078996,24.1854167 L15.655423,24.1854167 C15.5911213,24.1854167 15.5319082,24.154832 15.4949001,24.1027923 L5.12336335,9.50202506 L5.12336335,23.9918658 C5.12336335,24.098684 5.03546897,24.1854167 4.92768271,24.1854167 L0.521398708,24.1854167 C0.413612443,24.1854167 0.325255462,24.098684 0.325255462,23.9918658 L0.325255462,0.363592657 C0.325255462,0.256774476 0.413612443,0.170041764 0.521398708,0.170041764 L3.87433796,0.170041764 C3.93817704,0.170041764 3.9978527,0.201082945 4.03439825,0.252209596 L14.405935,14.8191968 L14.405935,0.363592657 C14.405935,0.256774476 14.4938294,0.170041764 14.6020782,0.170041764 L19.0078996,0.170041764 C19.1161485,0.170041764 19.2035803,0.256774476 19.2035803,0.363592657" id="Fill-15" fill="#FFFFFF" mask="url(#mask-8)"></path>
                    </g>
                    <g id="Group-20" transform="translate(108.711469, 0.286309)">
                        <mask id="mask-10" fill="white">
                            <use xlink:href="#path-9"></use>
                        </mask>
                        <g id="Clip-19"></g>
                        <path d="M14.9945498,24.0873631 L10.4999088,16.6525437 C10.4212664,16.5219882 10.2292866,16.5219882 10.1506443,16.6525437 L5.65600329,24.0873631 C5.61945773,24.148076 5.55330564,24.185508 5.48160233,24.185508 L0.531298391,24.185508 C0.374013713,24.185508 0.27594209,24.0156944 0.356434837,23.881487 L7.55128366,11.9717162 C7.58967962,11.9082644 7.58967962,11.829292 7.55128366,11.7662966 L0.739006686,0.473697552 C0.658513939,0.339946581 0.75612296,0.170133061 0.91387024,0.170133061 L5.86371158,0.170133061 C5.93541489,0.170133061 6.00202958,0.207565074 6.03857514,0.268277972 L10.1501817,7.08455614 C10.2292866,7.21556818 10.4212664,7.21556818 10.5003714,7.08455614 L14.6119779,0.268277972 C14.6485235,0.207565074 14.7151381,0.170133061 14.7868415,0.170133061 L19.7362202,0.170133061 C19.8944301,0.170133061 19.9920391,0.340403069 19.9110837,0.473697552 L13.0992694,11.7316035 C13.0608734,11.7950554 13.0608734,11.8744843 13.0992694,11.9374796 L20.3278881,23.881487 C20.4093061,24.015238 20.3112345,24.185508 20.1530246,24.185508 L15.1694133,24.185508 C15.09771,24.185508 15.0310953,24.148076 14.9945498,24.0873631" id="Fill-18" fill="#FFFFFF" mask="url(#mask-10)"></path>
                    </g>
                    <g id="Group-23" transform="translate(24.517906, 0.286309)">
                        <mask id="mask-12" fill="white">
                            <use xlink:href="#path-11"></use>
                        </mask>
                        <g id="Clip-22"></g>
                        <path d="M6.00087307,19.6444114 C5.37450997,19.5640695 4.88924048,19.0418473 4.88924048,18.4018512 L4.88924048,14.4559693 C4.88924048,14.353716 4.97297144,14.2706352 5.07705689,14.2706352 L13.9141428,14.2706352 C14.0182282,14.2706352 14.1024218,14.1875544 14.1024218,14.0853011 L14.1024218,9.99608197 C14.1024218,9.89382867 14.0182282,9.81074786 13.9141428,9.81074786 L5.07705689,9.81074786 C4.97297144,9.81074786 4.88924048,9.72766706 4.88924048,9.62541375 L4.88924048,4.88432984 C4.88924048,4.78162005 4.97297144,4.69899573 5.07705689,4.69899573 L14.7838345,4.69899573 C14.8874574,4.69899573 14.971651,4.61591492 14.971651,4.51366162 L14.971651,0.355512821 C14.971651,0.253259518 14.8874574,0.17017871 14.7838345,0.17017871 L0.279411605,0.17017871 C0.175326156,0.17017871 0.0915951949,0.253259518 0.0915951949,0.355512821 L0.0915951949,14.8229856 L0.0915951949,19.7060373 C0.0915951949,22.1843104 2.12750657,24.1937704 4.6394354,24.1937704 L15.1455893,24.1937704 L15.1455893,19.6444114 L6.00087307,19.6444114 Z" id="Fill-21" fill="#FFFFFF" mask="url(#mask-12)"></path>
                    </g>
                </g>
                <path d="M20.1429687,46 L18.0746093,46 L16.914453,41.5 C16.8714841,41.3398429 16.7982426,41.0087916 16.6947265,40.5068359 C16.5912103,40.0048803 16.5316406,39.6679696 16.5160155,39.4960938 C16.4925779,39.7070323 16.4339847,40.0458961 16.3402343,40.5126953 C16.2464838,40.9794945 16.1742189,41.312499 16.1234374,41.5117188 L14.9691405,46 L12.9066405,46 L10.7210937,37.4335938 L12.508203,37.4335938 L13.6039062,42.109375 C13.7953134,42.9726606 13.9339838,43.7207 14.0199218,44.3535156 C14.0433594,44.1308583 14.0970698,43.7861351 14.1810546,43.3193359 C14.2650394,42.8525367 14.3441402,42.4902357 14.4183593,42.2324219 L15.6664062,37.4335938 L17.383203,37.4335938 L18.6312499,42.2324219 C18.6859377,42.4472667 18.7542964,42.7753884 18.836328,43.2167969 C18.9183597,43.6582053 18.9808591,44.0371078 19.023828,44.3535156 C19.0628907,44.0488266 19.1253901,43.6689476 19.211328,43.2138672 C19.297266,42.7587868 19.3753902,42.3906264 19.445703,42.109375 L20.5355468,37.4335938 L22.3226562,37.4335938 L20.1429687,46 Z M27.480078,46 L27.1343749,45.109375 L27.0874999,45.109375 C26.7867172,45.4882831 26.4771499,45.7509758 26.158789,45.8974609 C25.840428,46.043946 25.4253931,46.1171875 24.9136718,46.1171875 C24.2847624,46.1171875 23.7896502,45.9375018 23.4283202,45.578125 C23.0669903,45.2187482 22.886328,44.7070346 22.886328,44.0429688 C22.886328,43.3476528 23.1294897,42.8349626 23.6158202,42.5048828 C24.1021508,42.174803 24.8355419,41.9921877 25.8160155,41.9570312 L26.9527343,41.921875 L26.9527343,41.6347656 C26.9527343,40.9706998 26.6128939,40.6386719 25.933203,40.6386719 C25.4097629,40.6386719 24.7945347,40.7968734 24.0874999,41.1132812 L23.495703,39.90625 C24.2496131,39.5117168 25.0855422,39.3144531 26.0035155,39.3144531 C26.8824262,39.3144531 27.5562476,39.5058575 28.0249999,39.8886719 C28.4937523,40.2714863 28.7281249,40.8535117 28.7281249,41.6347656 L28.7281249,46 L27.480078,46 Z M26.9527343,42.9648438 L26.261328,42.9882812 C25.7417942,43.0039063 25.3550793,43.0976554 25.1011718,43.2695312 C24.8472643,43.4414071 24.7203124,43.7031232 24.7203124,44.0546875 C24.7203124,44.5585963 25.009372,44.8105469 25.5874999,44.8105469 C26.0015645,44.8105469 26.3326159,44.6914074 26.580664,44.453125 C26.8287121,44.2148426 26.9527343,43.8984395 26.9527343,43.5039062 L26.9527343,42.9648438 Z M32.6550781,46 L30.8679687,46 L30.8679687,36.8828125 L32.6550781,36.8828125 L32.6550781,46 Z M36.6171874,46 L34.8300781,46 L34.8300781,36.8828125 L36.6171874,36.8828125 L36.6171874,46 Z M41.5050781,40.5976562 C41.1261699,40.5976562 40.8292979,40.7177722 40.6144531,40.9580078 C40.3996083,41.1982434 40.2765626,41.5390603 40.2453125,41.9804688 L42.753125,41.9804688 C42.7453124,41.5390603 42.6300792,41.1982434 42.4074218,40.9580078 C42.1847645,40.7177722 41.8839862,40.5976562 41.5050781,40.5976562 Z M41.7570312,46.1171875 C40.7023384,46.1171875 39.8781279,45.8261748 39.284375,45.2441406 C38.690622,44.6621065 38.39375,43.837896 38.39375,42.7714844 C38.39375,41.6738226 38.6681613,40.8251983 39.2169921,40.2255859 C39.765823,39.6259736 40.5246045,39.3261719 41.4933593,39.3261719 C42.4191452,39.3261719 43.1398411,39.5898411 43.6554687,40.1171875 C44.1710963,40.6445339 44.4289062,41.3730422 44.4289062,42.3027344 L44.4289062,43.1699219 L40.2042968,43.1699219 C40.2238282,43.6777369 40.3742173,44.0742173 40.6554687,44.359375 C40.9367201,44.6445327 41.3312474,44.7871094 41.8390625,44.7871094 C42.2335957,44.7871094 42.6066388,44.7460942 42.9582031,44.6640625 C43.3097673,44.5820308 43.6769512,44.4511728 44.0597656,44.2714844 L44.0597656,45.6542969 C43.747264,45.8105477 43.413283,45.9267574 43.0578125,46.0029297 C42.7023419,46.0791019 42.2687525,46.1171875 41.7570312,46.1171875 Z M48.9417968,44.6933594 C49.2542984,44.6933594 49.6292947,44.6250007 50.0667968,44.4882812 L50.0667968,45.8183594 C49.6214821,46.0175791 49.0746126,46.1171875 48.4261718,46.1171875 C47.7113245,46.1171875 47.1908219,45.9365252 46.8646484,45.5751953 C46.5384749,45.2138654 46.3753906,44.6718786 46.3753906,43.9492188 L46.3753906,40.7910156 L45.5199218,40.7910156 L45.5199218,40.0351562 L46.5042968,39.4375 L47.0199218,38.0546875 L48.1625,38.0546875 L48.1625,39.4492188 L49.9964843,39.4492188 L49.9964843,40.7910156 L48.1625,40.7910156 L48.1625,43.9492188 C48.1625,44.2031263 48.2337883,44.3906244 48.3763672,44.5117188 C48.518946,44.6328131 48.7074207,44.6933594 48.9417968,44.6933594 Z M60.3054687,43.6210938 C60.3054687,44.3945351 60.0271512,45.003904 59.4705078,45.4492188 C58.9138644,45.8945335 58.1394581,46.1171875 57.1472656,46.1171875 C56.2331985,46.1171875 55.4246129,45.9453142 54.7214844,45.6015625 L54.7214844,43.9140625 C55.2996123,44.1718763 55.7888652,44.3535151 56.1892578,44.4589844 C56.5896504,44.5644537 56.9558577,44.6171875 57.2878906,44.6171875 C57.6863301,44.6171875 57.9919911,44.5410164 58.2048828,44.3886719 C58.4177745,44.2363274 58.5242187,44.0097671 58.5242187,43.7089844 C58.5242187,43.5410148 58.4773442,43.3916022 58.3835937,43.2607422 C58.2898433,43.1298822 58.1521493,43.0039069 57.9705078,42.8828125 C57.7888663,42.7617181 57.4187528,42.5683607 56.8601562,42.3027344 C56.3367161,42.0566394 55.9441419,41.8203136 55.6824219,41.59375 C55.4207018,41.3671864 55.2117195,41.1035171 55.0554687,40.8027344 C54.899218,40.5019516 54.8210937,40.1503926 54.8210937,39.7480469 C54.8210937,38.9902306 55.0779271,38.3945334 55.5916016,37.9609375 C56.105276,37.5273416 56.8152298,37.3105469 57.7214844,37.3105469 C58.1667991,37.3105469 58.5915995,37.3632807 58.9958984,37.46875 C59.4001973,37.5742193 59.8230447,37.7226553 60.2644531,37.9140625 L59.6785156,39.3261719 C59.2214821,39.1386709 58.8435562,39.0078129 58.5447266,38.9335938 C58.2458969,38.8593746 57.9519546,38.8222656 57.6628906,38.8222656 C57.3191389,38.8222656 57.0554697,38.9023429 56.871875,39.0625 C56.6882803,39.2226571 56.5964844,39.4316393 56.5964844,39.6894531 C56.5964844,39.8496102 56.6335934,39.9892572 56.7078125,40.1083984 C56.7820316,40.2275397 56.9001945,40.3427729 57.0623047,40.4541016 C57.2244149,40.5654302 57.6082001,40.7656236 58.2136719,41.0546875 C59.0144571,41.4375019 59.5632798,41.8212871 59.8601562,42.2060547 C60.1570327,42.5908222 60.3054687,43.0624972 60.3054687,43.6210938 Z M64.7773438,44.6933594 C65.0898453,44.6933594 65.4648416,44.6250007 65.9023438,44.4882812 L65.9023438,45.8183594 C65.457029,46.0175791 64.9101595,46.1171875 64.2617188,46.1171875 C63.5468714,46.1171875 63.0263688,45.9365252 62.7001953,45.5751953 C62.3740218,45.2138654 62.2109375,44.6718786 62.2109375,43.9492188 L62.2109375,40.7910156 L61.3554687,40.7910156 L61.3554687,40.0351562 L62.3398437,39.4375 L62.8554687,38.0546875 L63.9980469,38.0546875 L63.9980469,39.4492188 L65.8320312,39.4492188 L65.8320312,40.7910156 L63.9980469,40.7910156 L63.9980469,43.9492188 C63.9980469,44.2031263 64.0693352,44.3906244 64.2119141,44.5117188 C64.3544929,44.6328131 64.5429676,44.6933594 64.7773438,44.6933594 Z M66.5890625,39.4492188 L68.5460938,39.4492188 L69.7824219,43.1347656 C69.8878912,43.4550797 69.9601561,43.8339822 69.9992188,44.2714844 L70.034375,44.2714844 C70.077344,43.8691386 70.1613275,43.4902362 70.2863281,43.1347656 L71.4992188,39.4492188 L73.4152344,39.4492188 L70.64375,46.8378906 C70.3898425,47.5214878 70.0275414,48.0332014 69.5568359,48.3730469 C69.0861305,48.7128923 68.5363313,48.8828125 67.9074219,48.8828125 C67.5988266,48.8828125 67.2960952,48.8496097 66.9992188,48.7832031 L66.9992188,47.3652344 C67.2140636,47.4160159 67.4484362,47.4414062 67.7023438,47.4414062 C68.0187516,47.4414062 68.295116,47.3447275 68.5314453,47.1513672 C68.7677746,46.9580068 68.9523431,46.6660176 69.0851563,46.2753906 L69.190625,45.953125 L66.5890625,39.4492188 Z M76.4398438,46 L74.6527344,46 L74.6527344,36.8828125 L76.4398438,36.8828125 L76.4398438,46 Z M81.3277344,40.5976562 C80.9488263,40.5976562 80.6519542,40.7177722 80.4371094,40.9580078 C80.2222646,41.1982434 80.0992189,41.5390603 80.0679688,41.9804688 L82.5757813,41.9804688 C82.5679687,41.5390603 82.4527355,41.1982434 82.2300782,40.9580078 C82.0074208,40.7177722 81.7066426,40.5976562 81.3277344,40.5976562 Z M81.5796875,46.1171875 C80.5249948,46.1171875 79.7007843,45.8261748 79.1070313,45.2441406 C78.5132783,44.6621065 78.2164063,43.837896 78.2164063,42.7714844 C78.2164063,41.6738226 78.4908176,40.8251983 79.0396485,40.2255859 C79.5884793,39.6259736 80.3472608,39.3261719 81.3160157,39.3261719 C82.2418015,39.3261719 82.9624975,39.5898411 83.478125,40.1171875 C83.9937526,40.6445339 84.2515625,41.3730422 84.2515625,42.3027344 L84.2515625,43.1699219 L80.0269532,43.1699219 C80.0464845,43.6777369 80.1968736,44.0742173 80.478125,44.359375 C80.7593764,44.6445327 81.1539037,44.7871094 81.6617188,44.7871094 C82.056252,44.7871094 82.4292952,44.7460942 82.7808594,44.6640625 C83.1324237,44.5820308 83.4996075,44.4511728 83.8824219,44.2714844 L83.8824219,45.6542969 C83.5699203,45.8105477 83.2359393,45.9267574 82.8804688,46.0029297 C82.5249983,46.0791019 82.0914088,46.1171875 81.5796875,46.1171875 Z M91.7058594,39.4492188 L91.7058594,40.3574219 L90.6804688,40.6210938 C90.8679697,40.914064 90.9617188,41.2421857 90.9617188,41.6054688 C90.9617188,42.3085973 90.7166041,42.8564433 90.2263672,43.2490234 C89.7361304,43.6416035 89.0554732,43.8378906 88.184375,43.8378906 L87.8621094,43.8203125 L87.5984375,43.7910156 C87.4148429,43.9316413 87.3230469,44.0878898 87.3230469,44.2597656 C87.3230469,44.5175794 87.6511686,44.6464844 88.3074219,44.6464844 L89.4207032,44.6464844 C90.1394568,44.6464844 90.6873029,44.8007797 91.0642579,45.109375 C91.4412129,45.4179703 91.6296875,45.8710908 91.6296875,46.46875 C91.6296875,47.2343788 91.3103548,47.8281229 90.6716797,48.25 C90.0330047,48.6718771 89.1160216,48.8828125 87.9207032,48.8828125 C87.0066361,48.8828125 86.3084009,48.7236344 85.8259766,48.4052734 C85.3435523,48.0869125 85.1023438,47.6406279 85.1023438,47.0664062 C85.1023438,46.671873 85.2253894,46.3417982 85.4714844,46.0761719 C85.7175794,45.8105455 86.0789039,45.6210943 86.5554688,45.5078125 C86.3718741,45.4296871 86.2117195,45.3017587 86.075,45.1240234 C85.9382806,44.9462882 85.8699219,44.7578135 85.8699219,44.5585938 C85.8699219,44.3085925 85.9421868,44.1005868 86.0867188,43.9345703 C86.2312508,43.7685539 86.4402331,43.6054696 86.7136719,43.4453125 C86.3699202,43.2968743 86.097462,43.0585954 85.8962891,42.7304688 C85.6951162,42.4023421 85.5945313,42.0156272 85.5945313,41.5703125 C85.5945313,40.8554652 85.8269508,40.3027363 86.2917969,39.9121094 C86.756643,39.5214824 87.4206989,39.3261719 88.2839844,39.3261719 C88.4675791,39.3261719 88.6853504,39.3427733 88.9373047,39.3759766 C89.1892591,39.4091799 89.3503903,39.4335937 89.4207032,39.4492188 L91.7058594,39.4492188 Z M86.6492188,46.9257812 C86.6492188,47.1718762 86.7673817,47.3652337 87.003711,47.5058594 C87.2400403,47.6464851 87.5710917,47.7167969 87.996875,47.7167969 C88.6375033,47.7167969 89.1394514,47.6289071 89.5027344,47.453125 C89.8660175,47.2773429 90.0476563,47.0371109 90.0476563,46.7324219 C90.0476563,46.4863269 89.9402355,46.3164067 89.7253907,46.2226562 C89.5105458,46.1289058 89.1785179,46.0820312 88.7292969,46.0820312 L87.8035157,46.0820312 C87.475389,46.0820312 87.2009777,46.1591789 86.9802735,46.3134766 C86.7595693,46.4677742 86.6492188,46.6718737 86.6492188,46.9257812 Z M87.2996094,41.59375 C87.2996094,41.9492205 87.3806633,42.2304677 87.5427735,42.4375 C87.7048837,42.6445323 87.9519515,42.7480469 88.2839844,42.7480469 C88.6199236,42.7480469 88.8660149,42.6445323 89.0222657,42.4375 C89.1785165,42.2304677 89.2566407,41.9492205 89.2566407,41.59375 C89.2566407,40.8046836 88.9324252,40.4101562 88.2839844,40.4101562 C87.6277311,40.4101562 87.2996094,40.8046836 87.2996094,41.59375 Z M97.7246094,46 L97.4843751,45.1621094 L97.3906251,45.1621094 C97.1992179,45.4667984 96.9277362,45.7021476 96.5761719,45.8681641 C96.2246077,46.0341805 95.8242211,46.1171875 95.3750001,46.1171875 C94.605465,46.1171875 94.0253926,45.9111349 93.6347657,45.4990234 C93.2441387,45.086912 93.0488282,44.4941445 93.0488282,43.7207031 L93.0488282,39.4492188 L94.8359376,39.4492188 L94.8359376,43.2753906 C94.8359376,43.7480492 94.9199211,44.1025379 95.0878907,44.3388672 C95.2558603,44.5751965 95.5234357,44.6933594 95.8906251,44.6933594 C96.3906276,44.6933594 96.7519521,44.5263689 96.9746094,44.1923828 C97.1972668,43.8583968 97.3085938,43.3046914 97.3085938,42.53125 L97.3085938,39.4492188 L99.0957032,39.4492188 L99.0957032,46 L97.7246094,46 Z M101.194531,37.7558594 C101.194531,37.1738252 101.518747,36.8828125 102.167188,36.8828125 C102.815628,36.8828125 103.139844,37.1738252 103.139844,37.7558594 C103.139844,38.0332045 103.05879,38.2490227 102.89668,38.4033203 C102.73457,38.557618 102.491408,38.6347656 102.167188,38.6347656 C101.518747,38.6347656 101.194531,38.3417998 101.194531,37.7558594 Z M103.057813,46 L101.270703,46 L101.270703,39.4492188 L103.057813,39.4492188 L103.057813,46 Z M107.307031,46.1171875 C106.537496,46.1171875 105.93301,45.8183624 105.493555,45.2207031 C105.054099,44.6230439 104.834375,43.7949272 104.834375,42.7363281 C104.834375,41.662104 105.058006,40.8251983 105.505274,40.2255859 C105.952541,39.6259736 106.568746,39.3261719 107.353906,39.3261719 C108.178129,39.3261719 108.807029,39.6464812 109.240625,40.2871094 L109.299219,40.2871094 C109.209375,39.7988257 109.164453,39.3632832 109.164453,38.9804688 L109.164453,36.8828125 L110.957422,36.8828125 L110.957422,46 L109.586328,46 L109.240625,45.1503906 L109.164453,45.1503906 C108.758201,45.7949251 108.139067,46.1171875 107.307031,46.1171875 Z M107.933984,44.6933594 C108.391018,44.6933594 108.725976,44.5605482 108.938867,44.2949219 C109.151759,44.0292955 109.267969,43.5781282 109.2875,42.9414062 L109.2875,42.7480469 C109.2875,42.0449184 109.179103,41.5410171 108.962305,41.2363281 C108.745507,40.9316391 108.392971,40.7792969 107.904688,40.7792969 C107.506248,40.7792969 107.196681,40.9482405 106.975977,41.2861328 C106.755272,41.6240251 106.644922,42.1152312 106.644922,42.7597656 C106.644922,43.4043001 106.756249,43.8876937 106.978906,44.2099609 C107.201564,44.5322282 107.51992,44.6933594 107.933984,44.6933594 Z M115.839453,40.5976562 C115.460545,40.5976562 115.163673,40.7177722 114.948828,40.9580078 C114.733983,41.1982434 114.610938,41.5390603 114.579688,41.9804688 L117.0875,41.9804688 C117.079688,41.5390603 116.964454,41.1982434 116.741797,40.9580078 C116.51914,40.7177722 116.218361,40.5976562 115.839453,40.5976562 Z M116.091406,46.1171875 C115.036714,46.1171875 114.212503,45.8261748 113.61875,45.2441406 C113.024997,44.6621065 112.728125,43.837896 112.728125,42.7714844 C112.728125,41.6738226 113.002536,40.8251983 113.551367,40.2255859 C114.100198,39.6259736 114.85898,39.3261719 115.827734,39.3261719 C116.75352,39.3261719 117.474216,39.5898411 117.989844,40.1171875 C118.505471,40.6445339 118.763281,41.3730422 118.763281,42.3027344 L118.763281,43.1699219 L114.538672,43.1699219 C114.558203,43.6777369 114.708592,44.0742173 114.989844,44.359375 C115.271095,44.6445327 115.665623,44.7871094 116.173438,44.7871094 C116.567971,44.7871094 116.941014,44.7460942 117.292578,44.6640625 C117.644142,44.5820308 118.011326,44.4511728 118.394141,44.2714844 L118.394141,45.6542969 C118.081639,45.8105477 117.747658,45.9267574 117.392188,46.0029297 C117.036717,46.0791019 116.603128,46.1171875 116.091406,46.1171875 Z" id="Wallet-Styleguide" fill="#96D6FF"></path>
            </g>
        </g>
    </g>
</svg>